<svg width="1099" height="128" viewBox="0 0 1099 128" fill="none" xmlns="http://www.w3.org/2000/svg">
<path d="M349 0H1099V128H349V0Z" fill="white"/>
<path d="M767.804 96.7225V31.5496H798.621C805.821 31.5496 812.152 32.8841 817.615 35.553C823.077 38.222 827.328 41.9772 830.37 46.8186C833.473 51.6601 835.025 57.4325 835.025 64.136C835.025 70.7775 833.473 76.5499 830.37 81.4534C827.328 86.2948 823.077 90.05 817.615 92.719C812.152 95.388 805.821 96.7225 798.621 96.7225H767.804ZM786.239 82.012H797.877C801.601 82.012 804.828 81.3293 807.559 79.9637C810.353 78.5361 812.525 76.4878 814.077 73.8189C815.628 71.0878 816.404 67.8602 816.404 64.136C816.404 60.3498 815.628 57.1222 814.077 54.4532C812.525 51.7842 810.353 49.7669 807.559 48.4014C804.828 46.9738 801.601 46.26 797.877 46.26H786.239V82.012Z" fill="#111111"/>
<path d="M677.505 56.7808H707.764V70.5602H677.505V56.7808ZM678.808 82.4776H712.884V96.7225H660.56V31.5496H711.674V45.7945H678.808V82.4776Z" fill="#111111"/>
<path d="M546.951 96.7225V31.5496H576.744C582.703 31.5496 587.823 32.5116 592.106 34.4358C596.451 36.3599 599.803 39.1531 602.161 42.8152C604.52 46.4152 605.699 50.698 605.699 55.6635C605.699 60.567 604.52 64.8188 602.161 68.4188C599.803 71.9568 596.451 74.6878 592.106 76.612C587.823 78.4741 582.703 79.4051 576.744 79.4051H557.192L565.385 71.6775V96.7225H546.951ZM587.265 96.7225L571.065 72.9809H590.71L607.003 96.7225H587.265ZM565.385 73.6327L557.192 65.1602H575.627C579.475 65.1602 582.33 64.3222 584.192 62.6464C586.117 60.9705 587.079 58.6429 587.079 55.6635C587.079 52.6221 586.117 50.2635 584.192 48.5876C582.33 46.9118 579.475 46.0738 575.627 46.0738H557.192L565.385 37.6013V73.6327Z" fill="#111111"/>
<path fill-rule="evenodd" clip-rule="evenodd" d="M436.61 90.1121C442.01 95.388 449.52 98.026 459.141 98.026C460.255 98.026 461.34 97.9906 462.397 97.92V82.4653C461.441 82.6597 460.418 82.7569 459.327 82.7569C455.479 82.7569 452.438 81.5465 450.203 79.1258C448.031 76.7051 446.944 72.7016 446.944 67.1154V31.5496H428.51V67.674C428.51 77.3568 431.21 84.8362 436.61 90.1121Z" fill="#111111"/>
<path d="M471.617 67.1154C471.617 72.7016 470.531 76.7051 468.358 79.1258C466.802 80.8606 464.814 81.9738 462.397 82.4653V97.92C470.472 97.38 476.897 94.7774 481.672 90.1121C487.072 84.8362 489.772 77.3568 489.772 67.674V31.5496H471.617V67.1154Z" fill="#111111"/>
<path fill-rule="evenodd" clip-rule="evenodd" d="M340.152 46.1669V96.7225H348.413V31.5496H320.134V46.1669H340.152Z" fill="white"/>
<path d="M378.511 46.1669V31.5496H348.413V96.7225H358.586V46.1669H378.511Z" fill="#111111"/>
<path d="M203.849 96.7225L232.618 31.5496H250.774L279.636 96.7225H260.457L237.925 40.5807H245.188L222.656 96.7225H203.849ZM219.584 84.0603L224.332 70.4671H256.174L260.922 84.0603H219.584Z" fill="white"/>
<path d="M121.371 56.7808H151.63V70.5602H121.371V56.7808ZM122.674 82.4776H156.75V96.7225H104.426V31.5496H155.54V45.7945H122.674V82.4776Z" fill="white"/>
<path d="M17.1312 60.1325H47.2038V74.3775H17.1312V60.1325ZM18.4346 96.7225H0V31.5496H51.1142V45.7945H18.4346V96.7225Z" fill="white"/>
</svg>
