<svg width="1164" height="128" viewBox="0 0 1164 128" fill="none" xmlns="http://www.w3.org/2000/svg">
<path d="M-14 0H711V128H-14V0Z" fill="white"/>
<path d="M1133.55 98.4331C1128.08 98.4331 1122.81 97.7655 1117.72 96.4302C1112.7 95.0314 1108.6 93.2511 1105.42 91.0892L1111.62 77.1645C1114.61 79.072 1118.04 80.6615 1121.92 81.9332C1125.86 83.1413 1129.77 83.7453 1133.65 83.7453C1136.26 83.7453 1138.35 83.5228 1139.94 83.0777C1141.53 82.569 1142.68 81.9332 1143.38 81.1702C1144.14 80.3436 1144.52 79.3899 1144.52 78.309C1144.52 76.7829 1143.82 75.5749 1142.42 74.6847C1141.02 73.7945 1139.21 73.0633 1136.99 72.4911C1134.76 71.9188 1132.28 71.3466 1129.55 70.7743C1126.88 70.2021 1124.17 69.4709 1121.44 68.5807C1118.77 67.6905 1116.32 66.546 1114.1 65.1472C1111.87 63.6848 1110.06 61.8091 1108.66 59.52C1107.26 57.1675 1106.56 54.2108 1106.56 50.6502C1106.56 46.6444 1107.64 43.0201 1109.8 39.7774C1112.03 36.5346 1115.34 33.9277 1119.72 31.9566C1124.11 29.9855 1129.58 29 1136.13 29C1140.52 29 1144.81 29.5087 1149 30.526C1153.26 31.4798 1157.05 32.9104 1160.35 34.8179L1154.54 48.838C1151.36 47.1213 1148.21 45.8496 1145.09 45.023C1141.98 44.1329 1138.96 43.6878 1136.03 43.6878C1133.43 43.6878 1131.33 43.9739 1129.74 44.5462C1128.15 45.0548 1127 45.7542 1126.3 46.6444C1125.61 47.5346 1125.26 48.5519 1125.26 49.6964C1125.26 51.1588 1125.92 52.3351 1127.26 53.2253C1128.66 54.0519 1130.47 54.7513 1132.69 55.3235C1134.98 55.8322 1137.46 56.3727 1140.13 56.9449C1142.87 57.5172 1145.57 58.2484 1148.24 59.1385C1150.97 59.9651 1153.45 61.1096 1155.68 62.5721C1157.91 63.9709 1159.69 65.8466 1161.02 68.1992C1162.42 70.4882 1163.12 73.3812 1163.12 76.8783C1163.12 80.7569 1162.01 84.3494 1159.78 87.6557C1157.62 90.8985 1154.34 93.5054 1149.96 95.4765C1145.63 97.4476 1140.17 98.4331 1133.55 98.4331Z" fill="white"/>
<path d="M1018.17 97.0979V45.3092H997.661V30.3353H1057.46V45.3092H1037.05V97.0979H1018.17Z" fill="white"/>
<path d="M921.607 98.4331C916.33 98.4331 911.434 97.6065 906.919 95.9534C902.469 94.2366 898.59 91.8204 895.284 88.7048C892.041 85.5892 889.498 81.9332 887.654 77.7367C885.81 73.4766 884.888 68.8032 884.888 63.7166C884.888 58.6299 885.81 53.9883 887.654 49.7918C889.498 45.5317 892.041 41.8439 895.284 38.7283C898.59 35.6127 902.469 33.2283 906.919 31.5751C911.434 29.8584 916.33 29 921.607 29C927.775 29 933.275 30.0809 938.107 32.2428C943.003 34.4046 947.072 37.5202 950.315 41.5895L938.298 52.4623C936.136 49.9189 933.752 47.9797 931.145 46.6444C928.601 45.3092 925.74 44.6415 922.561 44.6415C919.827 44.6415 917.315 45.0866 915.026 45.9768C912.737 46.8669 910.766 48.1704 909.113 49.8872C907.523 51.5403 906.252 53.5432 905.298 55.8958C904.408 58.2484 903.963 60.8553 903.963 63.7166C903.963 66.5778 904.408 69.1847 905.298 71.5373C906.252 73.8899 907.523 75.9246 909.113 77.6413C910.766 79.2945 912.737 80.5662 915.026 81.4563C917.315 82.3465 919.827 82.7916 922.561 82.7916C925.74 82.7916 928.601 82.124 931.145 80.7887C933.752 79.4535 936.136 77.5142 938.298 74.9708L950.315 85.8436C947.072 89.8493 943.003 92.9649 938.107 95.1904C933.275 97.3522 927.775 98.4331 921.607 98.4331Z" fill="white"/>
<path d="M795.819 56.1819H826.816V70.2975H795.819V56.1819ZM797.154 82.5055H832.062V97.0979H778.461V30.3353H830.822V44.9277H797.154V82.5055Z" fill="white"/>
<path fill-rule="evenodd" clip-rule="evenodd" d="M719.935 30.3353H710.944V94.0301C711.805 93.4293 712.609 92.7669 713.354 92.043C717.741 87.7193 719.935 81.202 719.935 72.4911V30.3353Z" fill="white"/>
<path d="M680.831 95.9534C684.837 97.6065 689.288 98.4331 694.184 98.4331C701.151 98.4331 706.737 96.9655 710.944 94.0301V30.3353H678.161V44.9277H701.241V73.6356C701.241 80.1211 698.444 83.3638 692.848 83.3638C690.75 83.3638 688.747 82.7916 686.84 81.6471C684.932 80.439 683.088 78.6905 681.308 76.4015L671.008 88.6095C673.614 91.7887 676.889 94.2366 680.831 95.9534Z" fill="#111111"/>
<path d="M588.217 98.4331C582.876 98.4331 577.948 97.5747 573.433 95.858C568.919 94.1412 564.977 91.7251 561.607 88.6095C558.301 85.4303 555.725 81.7425 553.882 77.5459C552.038 73.3494 551.116 68.7396 551.116 63.7166C551.116 58.6935 552.038 54.0837 553.882 49.8872C555.725 45.6907 558.301 42.0346 561.607 38.919C564.977 35.7398 568.919 33.2919 573.433 31.5751C577.948 29.8584 582.876 29 588.217 29C593.621 29 598.549 29.8584 603 31.5751C607.514 33.2919 611.425 35.7398 614.731 38.919C618.037 42.0346 620.612 45.6907 622.456 49.8872C624.364 54.0837 625.318 58.6935 625.318 63.7166C625.318 68.7396 624.364 73.3812 622.456 77.6413C620.612 81.8378 618.037 85.4939 614.731 88.6095C611.425 91.7251 607.514 94.1412 603 95.858C598.549 97.5747 593.621 98.4331 588.217 98.4331ZM588.217 82.7916C590.76 82.7916 593.113 82.3465 595.274 81.4563C597.5 80.5662 599.407 79.2945 600.997 77.6413C602.65 75.9246 603.922 73.8899 604.812 71.5373C605.766 69.1847 606.243 66.5778 606.243 63.7166C606.243 60.7917 605.766 58.1848 604.812 55.8958C603.922 53.5432 602.65 51.5403 600.997 49.8872C599.407 48.1704 597.5 46.8669 595.274 45.9768C593.113 45.0866 590.76 44.6415 588.217 44.6415C585.673 44.6415 583.289 45.0866 581.063 45.9768C578.902 46.8669 576.994 48.1704 575.341 49.8872C573.751 51.5403 572.48 53.5432 571.526 55.8958C570.636 58.1848 570.191 60.7917 570.191 63.7166C570.191 66.5778 570.636 69.1847 571.526 71.5373C572.48 73.8899 573.751 75.9246 575.341 77.6413C576.994 79.2945 578.902 80.5662 581.063 81.4563C583.289 82.3465 585.673 82.7916 588.217 82.7916Z" fill="#111111"/>
<path d="M438.169 97.0979V30.3353H468.689C474.793 30.3353 480.039 31.3208 484.426 33.2919C488.877 35.263 492.311 38.1242 494.727 41.8757C497.143 45.5635 498.351 49.9508 498.351 55.0374C498.351 60.0605 497.143 64.416 494.727 68.1038C492.311 71.7281 488.877 74.5258 484.426 76.4968C480.039 78.4043 474.793 79.3581 468.689 79.3581H448.661L457.054 71.442V97.0979H438.169ZM479.467 97.0979L462.871 72.7772H482.996L499.686 97.0979H479.467ZM457.054 73.4448L448.661 64.7657H467.545C471.487 64.7657 474.412 63.9073 476.319 62.1906C478.29 60.4738 479.276 58.0894 479.276 55.0374C479.276 51.9218 478.29 49.5057 476.319 47.7889C474.412 46.0722 471.487 45.2138 467.545 45.2138H448.661L457.054 36.5347V73.4448Z" fill="#111111"/>
<path d="M323 97.0979V30.3353H353.52C359.624 30.3353 364.87 31.3208 369.257 33.2919C373.708 35.263 377.141 38.1242 379.557 41.8757C381.974 45.5635 383.182 49.9508 383.182 55.0374C383.182 60.0605 381.974 64.416 379.557 68.1038C377.141 71.7917 373.708 74.6529 369.257 76.6876C364.87 78.6587 359.624 79.6442 353.52 79.6442H333.491L341.884 71.442V97.0979H323ZM341.884 73.4448L333.491 64.7657H352.376C356.318 64.7657 359.243 63.9073 361.15 62.1906C363.121 60.4738 364.107 58.0894 364.107 55.0374C364.107 51.9218 363.121 49.5057 361.15 47.7889C359.243 46.0722 356.318 45.2138 352.376 45.2138H333.491L341.884 36.5347V73.4448Z" fill="#111111"/>
</svg>
